/vscmnt/brussel_pixiu_data/_data_brussel/112/vsc11236/PredSimResults/SUBJ10opt3D/weighted-LRposFixed/trackIG/worker_02.mot
version=1
nRows=6
nColumns=50
inDegrees=yes
endheader
                time	         pelvis_tilt	         pelvis_list	     pelvis_rotation	           pelvis_tx	           pelvis_ty	           pelvis_tz	       hip_flexion_r	     hip_adduction_r	      hip_rotation_r	        knee_angle_r	       ankle_angle_r	         mtp_angle_r	       hip_flexion_l	     hip_adduction_l	      hip_rotation_l	        knee_angle_l	       ankle_angle_l	         mtp_angle_l	    lumbar_extension	      lumbar_bending	     lumbar_rotation	 ercspn_r/activation	 intobl_r/activation	 extobl_r/activation	    abd_r/activation	    add_r/activation	hamstrings_r/activation	bifemsh_r/activation	glut_max_r/activation	iliopsoas_r/activation	rect_fem_r/activation	  vasti_r/activation	gastroc_r/activation	 soleus_r/activation	tib_ant_r/activation	 ercspn_l/activation	 intobl_l/activation	 extobl_l/activation	    abd_l/activation	    add_l/activation	hamstrings_l/activation	bifemsh_l/activation	glut_max_l/activation	iliopsoas_l/activation	rect_fem_l/activation	  vasti_l/activation	gastroc_l/activation	 soleus_l/activation	tib_ant_l/activation	
          1.15175988	         -4.18881199	         -0.90275666	          6.76668644	          1.30148867	          0.82293241	         -0.01287648	         30.58125284	         -1.44005163	         -5.70251733	         -7.66705405	          2.98270026	          0.26325579	        -15.56557910	         -0.62706646	         -0.48369669	         -6.51582607	          8.69464273	         26.64127228	         -6.31984221	         -0.47023022	         -6.89068931	          0.10799425	          0.14826285	          0.01000000	          0.00999999	          0.20672969	          0.11108849	          0.19790424	          0.05611086	          0.09803949	          0.01000004	          0.00999999	          0.01726559	          0.01327903	          0.28951290	          0.09549179	          0.00999999	          0.00999999	          0.05707071	          0.01000002	          0.01130807	          0.21322403	          0.01544820	          0.42276333	          0.01000003	          0.00999999	          0.31289843	          0.25808635	          0.02290120	
          1.16327748	         -4.22494721	         -0.88651330	          6.87203859	          1.31706236	          0.82155508	         -0.01254059	         30.45592508	         -1.31366472	         -5.34299662	         -9.28960410	          2.63523807	          0.24921042	        -15.59676228	         -0.76687125	         -0.80240772	         -8.33146371	          8.04515865	         28.33175729	         -6.08044142	          0.01850402	         -7.21774847	          0.09060224	          0.12438577	          0.01000000	          0.01000002	          0.17343677	          0.09616612	          0.16603264	          0.10134984	          0.08225066	          0.01000000	          0.00999999	          0.01448504	          0.01114050	          0.35780025	          0.11172047	          0.00999999	          0.01000000	          0.04787972	          0.01765824	          0.01910374	          0.17888523	          0.01296034	          0.35467914	          0.01000000	          0.00999999	          0.27504682	          0.24689691	          0.01921306	
          1.17479508	         -4.25208975	         -0.88736077	          6.93870313	          1.33287664	          0.82047628	         -0.01207757	         30.16835331	         -1.17647448	         -5.04352527	        -10.63499795	          2.17337532	          0.24029155	        -15.47735593	         -0.93814009	         -1.14638185	        -10.43328414	          7.22397878	         29.98751852	         -5.82421514	          0.52167844	         -7.51418169	          0.10350665	          0.10435398	          0.01000000	          0.05456042	          0.16863245	          0.08363232	          0.13929381	          0.11510696	          0.06900455	          0.01000000	          0.00999999	          0.01215229	          0.00999999	          0.41545469	          0.12406626	          0.00999999	          0.00999999	          0.04016890	          0.01481447	          0.01602734	          0.15007654	          0.01087314	          0.29755961	          0.01000001	          0.00999999	          0.23075172	          0.23012029	          0.01611888	
          1.18631268	         -4.27100234	         -0.88521594	          6.96655669	          1.34872801	          0.81979825	         -0.01149409	         29.82532261	         -1.03959024	         -4.85092865	        -11.89539953	          1.71114722	          0.22713170	        -15.15851555	         -1.11980768	         -1.51774421	        -12.87407228	          6.21760662	         31.51129399	         -5.57447174	          1.01652907	         -7.77476689	          0.10676916	          0.08754823	          0.01000000	          0.09435241	          0.20767216	          0.07164854	          0.11686115	          0.11990624	          0.05789166	          0.01000000	          0.01000000	          0.01019522	          0.01000000	          0.44742944	          0.15079494	          0.00999999	          0.00999999	          0.03369987	          0.01242871	          0.01769511	          0.12590737	          0.01000003	          0.24963892	          0.01000000	          0.00999999	          0.19359016	          0.21109020	          0.01352301	
          1.19783028	         -4.28175571	         -0.88247457	          6.95929202	          1.36447269	          0.81958782	         -0.01080459	         29.49354499	         -0.90317620	         -4.74627870	        -13.19717535	          1.38528931	          0.21402358	        -14.60608959	         -1.31669572	         -1.92015321	        -15.68579733	          5.04597169	         32.73743226	         -5.34252957	          1.50446831	         -7.99826403	          0.10573728	          0.07344897	          0.01000000	          0.12362824	          0.23300153	          0.06702061	          0.09804117	          0.11958886	          0.04856846	          0.01000000	          0.04043538	          0.01000000	          0.01000000	          0.46220535	          0.17438973	          0.00999999	          0.01000000	          0.02827265	          0.06893724	          0.02791517	          0.10563054	          0.01000000	          0.20943566	          0.01000000	          0.00999999	          0.16241331	          0.18151923	          0.01134519	
          1.20934788	         -4.28596288	         -0.87718506	          6.91796865	          1.37999914	          0.81992742	         -0.01003449	         29.15880726	         -0.76835235	         -4.70707637	        -14.50199578	          1.25401350	          0.19926308	        -13.78968155	         -1.52780731	         -2.37507747	        -18.89175099	          3.73943610	         33.43636361	         -5.13557771	          1.98277657	         -8.18345961	          0.10043094	          0.06162033	          0.01000000	          0.14023119	          0.25099510	          0.06657394	          0.08225207	          0.10914678	          0.04074672	          0.01000000	          0.08113177	          0.01000000	          0.00999999	          0.45654339	          0.18829725	          0.00999999	          0.00999999	          0.02371947	          0.14302434	          0.03526344	          0.08861921	          0.00999999	          0.17570696	          0.01000000	          0.00999999	          0.13625735	          0.15228634	          0.00999999	
